# xmcd CD database file
#
# Track frame offsets:
#	150
#	34890
#	73677
#	95650
#	124590
#	161400
#	194702
#	243230
#	266765
#	286635
#	305577
#	316897
#
# Disc length: 4413 seconds
#
# Revision: 0
# Processed by: cddbd v1.5.1PL2 Copyright (c) Steve Scherf et al.
# Submitted via: CDex 1.51
#
DISCID=aa113b0c
DTITLE=モーツァルト - モーツァルト大好き?
DYEAR=1900
DGENRE=クラシック
TTITLE0=交響曲第25番　ト短調　K.183:第1楽章
TTITLE1=フルートとハーブのための協奏曲　ハ長調　K.299:第2楽章
TTITLE2=ホルン協奏曲第1番　ニ長調　K.412:第1楽章
TTITLE3=クラリネット協奏曲　イ長調　K.622:第2楽章
TTITLE4=ヴァイオリン協奏曲第5番　イ長調　K.219:第3楽章
TTITLE5=ピアノ協奏曲第23番　イ長調　K.488:第2楽章
TTITLE6=弦楽五重奏曲　ト短調　K.516:第1楽章
TTITLE7=歌劇「魔笛」K.620 夜の女王のマリア「ふるえないで、私のかわいい息子よ」
TTITLE8=歌劇「魔笛」K.620 パパゲーノのマリア「かわいい女の子をパパゲーノはほしいよ」
TTITLE9=歌劇「フィガロの結婚」K.492:序曲
TTITLE10=レクイエムK.626 レクス・トレメンダエ
TTITLE11=レクイエムK.626 ラクリモーザ
EXTD=
EXTT0=
EXTT1=
EXTT2=
EXTT3=
EXTT4=
EXTT5=
EXTT6=
EXTT7=
EXTT8=
EXTT9=
EXTT10=
EXTT11=
PLAYORDER=
